<svg width="100" height="103" viewBox="0 0 100 103" fill="none" xmlns="http://www.w3.org/2000/svg">
<path d="M0 33.2C0 5.8598 5.8598 0 33.2 0H66.8C94.1402 0 100 5.8598 100 33.2V66.8C100 94.1402 94.1402 100 66.8 100H33.2C5.8598 100 0 94.1402 0 66.8V33.2Z" fill="#0E6200"/>
<path d="M28.92 91V85.192H37.512C39.688 85.192 41.592 84.744 43.224 83.848C44.856 82.92 46.12 81.624 47.016 79.96C47.944 78.296 48.408 76.328 48.408 74.056C48.408 71.848 47.944 69.928 47.016 68.296C46.088 66.632 44.808 65.352 43.176 64.456C41.544 63.528 39.656 63.064 37.512 63.064H28.776V57.256H37.608C40.104 57.256 42.408 57.672 44.52 58.504C46.664 59.336 48.52 60.52 50.088 62.056C51.688 63.56 52.92 65.336 53.784 67.384C54.68 69.432 55.128 71.672 55.128 74.104C55.128 76.536 54.68 78.792 53.784 80.872C52.92 82.92 51.704 84.712 50.136 86.248C48.568 87.752 46.712 88.92 44.568 89.752C42.456 90.584 40.168 91 37.704 91H28.92ZM24.456 91V57.256H30.984V91H24.456ZM75.9154 91.48C73.5154 91.48 71.2594 91.048 69.1474 90.184C67.0674 89.288 65.2274 88.04 63.6274 86.44C62.0594 84.84 60.8274 83 59.9314 80.92C59.0674 78.808 58.6354 76.536 58.6354 74.104C58.6354 71.64 59.0834 69.368 59.9794 67.288C60.8754 65.176 62.1234 63.336 63.7234 61.768C65.3234 60.168 67.1954 58.936 69.3394 58.072C71.4834 57.176 73.8034 56.728 76.2994 56.728C79.0834 56.728 81.6434 57.256 83.9794 58.312C86.3154 59.336 88.2514 60.792 89.7874 62.68L85.3714 67.096C84.3154 65.72 83.0034 64.664 81.4354 63.928C79.8674 63.192 78.1394 62.824 76.2514 62.824C74.1074 62.824 72.2034 63.304 70.5394 64.264C68.9074 65.192 67.6274 66.504 66.6994 68.2C65.7714 69.864 65.3074 71.816 65.3074 74.056C65.3074 76.296 65.7554 78.28 66.6514 80.008C67.5794 81.704 68.8274 83.032 70.3954 83.992C71.9954 84.952 73.8194 85.432 75.8674 85.432C77.9794 85.432 79.7874 85.048 81.2914 84.28C82.7954 83.48 83.9474 82.328 84.7474 80.824C85.5474 79.288 85.9474 77.416 85.9474 75.208L90.2194 78.136L75.4834 77.992V72.328H92.6674V73.24C92.6674 77.272 91.9474 80.648 90.5074 83.368C89.0674 86.056 87.0834 88.088 84.5554 89.464C82.0594 90.808 79.1794 91.48 75.9154 91.48Z" fill="white"/>
</svg>
